<svg id="Icons_Outlined_Blue_1.5px" data-name="Icons Outlined Blue 1.5px" xmlns="http://www.w3.org/2000/svg" viewBox="0 0 48 48"><defs><style>.cls-1{fill:#0b2043;}</style></defs><path class="cls-1" d="M30,43.75h8a.76.76,0,0,0,.75-.75V21a.88.88,0,0,0,0-.16l-3-14a.75.75,0,0,0-.66-.59l-23-2a.76.76,0,0,0-.74.41l-2,4A.81.81,0,0,0,9.25,9V30a.92.92,0,0,0,.05.28l2,5a.76.76,0,0,0,.59.46.75.75,0,0,0,.7-.27A9.65,9.65,0,0,1,20,32a9.26,9.26,0,0,1,9.25,9.25V43A.76.76,0,0,0,30,43.75Zm7.25-5.5h-2.5v-3.5h2.5Zm0-16.13-17-2.68a1.3,1.3,0,0,1-1-.77l-1.35-3.4a1.23,1.23,0,0,1-.07-.71l.76-3.77,16.35,1a.86.86,0,0,0,.28,0l2,9.37ZM20,30.5a11.15,11.15,0,0,0-7.75,3.11l-1.5-3.75V9.18l1.69-3.39L34.38,7.7l.55,2.54L18,9.25a.76.76,0,0,0-.78.6l-.88,4.42a2.87,2.87,0,0,0,.14,1.56l1.36,3.39A2.76,2.76,0,0,0,20,20.92l17.24,2.72v9.61H34a.76.76,0,0,0-.75.75v5a.76.76,0,0,0,.75.75h3.25v2.5h-6.5v-1A10.76,10.76,0,0,0,20,30.5Z"/></svg>